<?xml version="1.0" encoding="UTF-8" standalone="no"?>
<!-- Created with Inkscape (http://www.inkscape.org/) -->

<svg
   width="74.105553mm"
   height="74.105553mm"
   viewBox="0 0 74.105553 74.105553"
   version="1.1"
   id="svg5"
   inkscape:version="1.2.2 (b0a8486541, 2022-12-01)"
   sodipodi:docname="consent_icon.svg"
   inkscape:export-filename="Dev/justice-plurielle/public/consent-icon.svg"
   inkscape:export-xdpi="96"
   inkscape:export-ydpi="96"
   xmlns:inkscape="http://www.inkscape.org/namespaces/inkscape"
   xmlns:sodipodi="http://sodipodi.sourceforge.net/DTD/sodipodi-0.dtd"
   xmlns="http://www.w3.org/2000/svg"
   xmlns:svg="http://www.w3.org/2000/svg">
  <sodipodi:namedview
     id="namedview7"
     pagecolor="#ffffff"
     bordercolor="#000000"
     borderopacity="0.25"
     inkscape:showpageshadow="2"
     inkscape:pageopacity="0"
     inkscape:pagecheckerboard="true"
     inkscape:deskcolor="#d1d1d1"
     inkscape:document-units="mm"
     showgrid="false"
     inkscape:zoom="1.7418164"
     inkscape:cx="231.36767"
     inkscape:cy="108.50742"
     inkscape:window-width="1920"
     inkscape:window-height="1026"
     inkscape:window-x="0"
     inkscape:window-y="0"
     inkscape:window-maximized="1"
     inkscape:current-layer="layer1" />
  <defs
     id="defs2">
    <inkscape:path-effect
       effect="spiro"
       id="path-effect1287"
       is_visible="true"
       lpeversion="1" />
    <inkscape:path-effect
       effect="spiro"
       id="path-effect1281"
       is_visible="true"
       lpeversion="1" />
  </defs>
  <g
     inkscape:label="Layer 1"
     inkscape:groupmode="layer"
     id="layer1"
     transform="translate(-44.346647,-82.417708)">
    <path
       id="path4406"
       style="fill:#ffffff;stroke-width:0.248772"
       d="m 57.11739,84.402094 c -5.975764,0 -10.786363,4.747765 -10.786363,10.645478 v 47.929748 c 0,5.89773 4.810599,10.64548 10.786363,10.64548 h 48.56407 c 5.97574,0 10.78636,-4.74775 10.78636,-10.64548 V 95.047572 c 0,-5.897713 -4.81062,-10.645478 -10.78636,-10.645478 z"
       sodipodi:nodetypes="sssssssss"
       inkscape:label="path4406" />
    <path
       id="rect113"
       style="fill:#8d0d20;fill-opacity:1;stroke-width:0.264583"
       d="m 55.743368,82.417708 c -6.31391,0 -11.396721,5.082811 -11.396721,11.396721 v 51.312111 c 0,6.31392 5.082811,11.39672 11.396721,11.39672 h 51.312112 c 6.3139,0 11.39672,-5.0828 11.39672,-11.39672 V 93.814429 c 0,-6.31391 -5.08282,-11.396721 -11.39672,-11.396721 z m 37.372912,5.249809 a 4.8075466,4.8075466 0 0 1 4.807459,4.807459 4.8075466,4.8075466 0 0 1 -4.807459,4.807458 4.8075466,4.8075466 0 0 1 -4.807458,-4.807458 4.8075466,4.8075466 0 0 1 4.807458,-4.807459 z m 12.75891,0 a 4.8075466,4.8075466 0 0 1 4.80746,4.807459 4.8075466,4.8075466 0 0 1 -4.80746,4.807458 4.8075466,4.8075466 0 0 1 -4.80746,-4.807458 4.8075466,4.8075466 0 0 1 4.80746,-4.807459 z M 49.314819,102.34001 h 8.78086 46.607491 8.78138 v 8.78137 20.50624 11.3497 c 0,4.8648 -3.91658,8.78138 -8.78138,8.78138 H 58.095679 c -4.864817,0 -8.78086,-3.91658 -8.78086,-8.78138 v -11.3497 -20.50624 z" />
    <path
       style="fill:none;stroke:#8d0d20;stroke-width:4.7625;stroke-linecap:round;stroke-linejoin:round;stroke-dasharray:none;stroke-opacity:1"
       d="m 55.859981,127.80578 8.220194,8.18485 13.945807,-17.08617"
       id="path546"
       sodipodi:nodetypes="ccc" />
    <g
       id="g1340"
       transform="matrix(1.130665,0,0,1.130665,-13.257566,-16.92119)">
      <path
         style="fill:none;stroke:#8d0d20;stroke-width:4.21212;stroke-linecap:round;stroke-dasharray:none;stroke-opacity:1"
         d="M 105.14726,135.22318 90.938704,121.01462"
         id="path1279"
         inkscape:path-effect="#path-effect1281"
         inkscape:original-d="m 105.14726,135.22318 c -4.73591,-4.73619 -9.472096,-9.47238 -14.208556,-14.20856" />
      <path
         style="fill:none;stroke:#8d0d20;stroke-width:4.21212;stroke-linecap:round;stroke-dasharray:none;stroke-opacity:1"
         d="M 90.938704,135.22318 105.14726,121.01462"
         id="path1283"
         inkscape:path-effect="#path-effect1287"
         inkscape:original-d="m 90.938704,135.22318 c 4.736189,-4.73591 9.472376,-9.4721 14.208556,-14.20856" />
    </g>
  </g>
</svg>
