<svg xmlns="http://www.w3.org/2000/svg" viewBox="0 0 600 600" fill="#8D0D20">
	<path d="M174.94,173.24h-2.34v39.48h2.34c5.54,0,10.08-1.87,13.6-5.61c3.53-3.74,5.31-8.44,5.37-14.09
		c0-5.65-1.76-10.36-5.29-14.13C185.1,175.13,180.54,173.24,174.94,173.24z"/>
	<path  d="M249.86,173.81c-0.75-0.59-1.75-1.05-2.99-1.37c-1.24-0.32-2.34-0.51-3.31-0.56
		c-0.97-0.05-2.15-0.08-3.55-0.08h-1.78v17.44h1.78c1.4,0,2.58-0.03,3.55-0.08c0.97-0.05,2.07-0.24,3.31-0.56
		c1.24-0.32,2.23-0.78,2.99-1.37c0.75-0.59,1.4-1.45,1.94-2.58c0.54-1.13,0.81-2.5,0.81-4.12c0-1.61-0.27-2.99-0.81-4.12
		C251.26,175.26,250.62,174.4,249.86,173.81z"/>
	<path d="M317.52,173.08c-5.49,0-9.73,1.95-12.72,5.85c-2.99,3.9-4.48,8.57-4.48,14.01c0,3.5,0.54,6.69,1.62,9.57
		c1.08,2.88,2.96,5.32,5.65,7.31c2.69,1.99,6,2.99,9.93,2.99c5.65,0,9.92-1.94,12.8-5.81c2.88-3.87,4.32-8.56,4.32-14.05
		c0-5.44-1.47-10.1-4.4-14.01C327.3,175.03,323.06,173.08,317.52,173.08z"/>
	<path d="M72.54,133.25v119.46h454.93V133.25H72.54z M200.5,216.8c-6.54,6.33-14.47,9.49-23.78,9.49h-19.3v-66.61h19.3
		c9.26,0,17.17,3.16,23.73,9.49c6.57,6.33,9.85,14.25,9.85,23.78C210.31,202.52,207.04,210.47,200.5,216.8z M258.58,226.28
		l-20.35-26.32v26.32h-15.18v-66.61h23.82c6.4,0,11.63,1.71,15.66,5.13s6.05,8.3,6.05,14.65c0,4.9-1.23,9-3.67,12.31
		c-2.45,3.31-5.77,5.64-9.97,6.98l22.93,27.53H258.58z M341.42,217.52c-6.41,6.65-14.37,9.97-23.9,9.97c-9.74,0-17.77-3.3-24.1-9.89
		c-6.33-6.59-9.49-14.81-9.49-24.66c0-9.63,3.28-17.79,9.85-24.46c6.57-6.67,14.48-10.01,23.73-10.01c9.31,0,17.22,3.32,23.74,9.97
		c6.51,6.65,9.77,14.81,9.77,24.5C351.02,202.68,347.82,210.88,341.42,217.52z M381.14,226.28h-15.18v-66.61h15.18V226.28z
		 M442.58,173h-15.83v53.28h-15.18V173h-15.82v-13.32h46.83V173z"/>
	<path d="M146.12,357.87c2.18-1.37,3.27-3.62,3.27-6.74c0-3.18-1.09-5.45-3.27-6.82c-2.18-1.37-4.97-2.06-8.36-2.06
		h-4.28v17.68h4.28C141.16,359.93,143.94,359.25,146.12,357.87z"/>
	<path d="M72.54,422.55v1.14h28.73l-15.8,43.06l73.96-43.06h368.04V303.93H72.54V422.55z M443.58,330.14h15.18v53.28
		h22.93v13.32h-38.11V330.14z M390.7,330.14h38.11v13.32h-22.93v13.24h21.96v13.32h-21.96v13.4h22.93v13.32H390.7V330.14z
		 M359.78,330.14h15.18v66.61h-15.18V330.14z M295.92,330.14h23.82c6.41,0,11.63,1.71,15.66,5.13c4.04,3.42,6.06,8.3,6.06,14.65
		c0,4.9-1.23,9-3.67,12.31c-2.45,3.31-5.77,5.64-9.97,6.98l22.93,27.53h-19.29l-20.35-26.32v26.32h-15.18V330.14z M229,330.14h15.18
		v38.51c0,5.38,0.85,9.12,2.54,11.22c1.7,2.1,4.45,3.15,8.28,3.15c3.82,0,6.58-1.05,8.28-3.15c1.7-2.1,2.54-5.84,2.54-11.22v-38.51
		h15.18v42.95c0,8.18-2.21,14.37-6.62,18.57c-4.41,4.2-10.87,6.3-19.38,6.3c-8.5,0-14.96-2.1-19.38-6.3
		c-4.41-4.2-6.62-10.39-6.62-18.57V330.14z M178.14,330.14h15.18v53.28h22.93v13.32h-38.11V330.14z M118.31,330.14h24.3
		c6.78,0,12.27,1.75,16.47,5.25c4.2,3.5,6.3,8.59,6.3,15.26c0,6.67-2.13,11.91-6.38,15.7c-4.25,3.79-9.71,5.69-16.39,5.69h-9.12
		v24.7h-15.18V330.14z"/>
	<path d="M316.43,359.61c0.97-0.05,2.07-0.24,3.31-0.56c1.24-0.32,2.23-0.78,2.99-1.37c0.75-0.59,1.4-1.45,1.94-2.58
		c0.54-1.13,0.81-2.5,0.81-4.12c0-1.61-0.27-2.99-0.81-4.12c-0.54-1.13-1.18-1.99-1.94-2.58c-0.75-0.59-1.75-1.05-2.99-1.37
		c-1.24-0.32-2.34-0.51-3.31-0.56c-0.97-0.05-2.15-0.08-3.55-0.08h-1.78v17.44h1.78C314.28,359.69,315.46,359.66,316.43,359.61z"/>
</svg>
