<svg width="30" height="43" viewBox="0 0 30 43" xmlns="http://www.w3.org/2000/svg" fill="#000000">
<path d="M14.875 0C6.65125 0 0 6.65125 0 14.875C0 18.5725 1.0625 22.0362 2.99625 25.16C5.015 28.4325 7.67125 31.2375 9.71125 34.51C10.71 36.1037 11.4325 37.5912 12.1975 39.3125C12.75 40.4813 13.1962 42.5 14.875 42.5C16.5538 42.5 17 40.4813 17.5312 39.3125C18.3175 37.5912 19.0187 36.1037 20.0175 34.51C22.0575 31.2587 24.7138 28.4537 26.7325 25.16C28.6875 22.0362 29.75 18.5725 29.75 14.875C29.75 6.65125 23.0988 0 14.875 0ZM14.875 20.7188C11.9425 20.7188 9.5625 18.3387 9.5625 15.4062C9.5625 12.4738 11.9425 10.0938 14.875 10.0938C17.8075 10.0938 20.1875 12.4738 20.1875 15.4062C20.1875 18.3387 17.8075 20.7188 14.875 20.7188Z"/>
</svg>
